<?xml version="1.0" encoding="UTF-8" standalone="no"?>
<!-- Created with Inkscape (http://www.inkscape.org/) -->

<svg
   xmlns:dc="http://purl.org/dc/elements/1.1/"
   xmlns:cc="http://creativecommons.org/ns#"
   xmlns:rdf="http://www.w3.org/1999/02/22-rdf-syntax-ns#"
   xmlns:svg="http://www.w3.org/2000/svg"
   xmlns="http://www.w3.org/2000/svg"
   xmlns:sodipodi="http://sodipodi.sourceforge.net/DTD/sodipodi-0.dtd"
   xmlns:inkscape="http://www.inkscape.org/namespaces/inkscape"
   width="744.09448819"
   height="1052.3622047"
   id="svg2"
   version="1.1"
   inkscape:version="0.48.4 r9939"
   sodipodi:docname="asteroid.svg">
  <defs
     id="defs4" />
  <sodipodi:namedview
     id="base"
     pagecolor="#ffffff"
     bordercolor="#666666"
     borderopacity="1.0"
     inkscape:pageopacity="0.0"
     inkscape:pageshadow="2"
     inkscape:zoom="2.8"
     inkscape:cx="49.912286"
     inkscape:cy="148.20991"
     inkscape:document-units="px"
     inkscape:current-layer="layer1"
     showgrid="false"
     inkscape:window-width="1422"
     inkscape:window-height="819"
     inkscape:window-x="1"
     inkscape:window-y="1"
     inkscape:window-maximized="1" />
  <metadata
     id="metadata7">
    <rdf:RDF>
      <cc:Work
         rdf:about="">
        <dc:format>image/svg+xml</dc:format>
        <dc:type
           rdf:resource="http://purl.org/dc/dcmitype/StillImage" />
        <dc:title></dc:title>
      </cc:Work>
    </rdf:RDF>
  </metadata>
  <g
     inkscape:label="Layer 1"
     inkscape:groupmode="layer"
     id="layer1">
    <path
       sodipodi:type="arc"
       style="fill:#49ff2b;fill-opacity:1;stroke:#ed00dc;stroke-width:24.69211578;stroke-miterlimit:4;stroke-opacity:1;stroke-dasharray:none"
       id="path2985"
       sodipodi:cx="331.42856"
       sodipodi:cy="606.64789"
       sodipodi:rx="142.85715"
       sodipodi:ry="142.85715"
       d="m 474.28571,606.64789 a 142.85715,142.85715 0 1 1 -285.7143,0 142.85715,142.85715 0 1 1 285.7143,0 z"
       transform="matrix(0.16107915,0,0,0.16107915,21.61377,879.64385)"
       inkscape:export-xdpi="180"
       inkscape:export-ydpi="180" />
    <path
       sodipodi:type="arc"
       style="fill:#73aab7;fill-opacity:1;stroke:none"
       id="path3757"
       sodipodi:cx="72.85714"
       sodipodi:cy="896.29077"
       sodipodi:rx="20.714285"
       sodipodi:ry="20.714285"
       d="m 93.571424,896.29077 a 20.714285,20.714285 0 1 1 -41.428569,0 20.714285,20.714285 0 1 1 41.428569,0 z"
       transform="matrix(1.2068966,0,0,1.2068966,-12.931034,-204.3681)"
       inkscape:export-filename="C:\Users\nwint_000\Documents\GitHub\AsteroidZero\raw_data\path3755.png"
       inkscape:export-xdpi="180"
       inkscape:export-ydpi="180" />
    <path
       sodipodi:type="spiral"
       style="fill:none;stroke:#000000;stroke-width:1px;stroke-linecap:butt;stroke-linejoin:miter;stroke-opacity:1"
       id="path3755"
       sodipodi:cx="71.785713"
       sodipodi:cy="896.64789"
       sodipodi:expansion="1"
       sodipodi:revolution="3"
       sodipodi:radius="24.169891"
       sodipodi:argument="-31.084831"
       sodipodi:t0="0.1450209"
       d="m 68.290937,896.91723 c -1.102602,-2.41937 0.743697,-5.03925 3.070663,-5.77232 3.542995,-1.11616 7.078805,1.50585 7.935294,4.92409 1.164615,4.64797 -2.267497,9.13501 -6.777524,10.09827 -5.747312,1.22752 -11.199042,-3.02848 -12.261242,-8.63095 -1.297657,-6.84437 3.789018,-13.26741 10.484385,-14.42422 7.940305,-1.37191 15.33842,4.54927 16.58719,12.33782 1.448718,9.03562 -5.309328,17.41118 -14.191246,18.75016 -10.13056,1.52722 -19.485151,-6.06926 -20.913138,-16.04468 -1.606902,-11.22525 6.829099,-21.55999 17.898107,-23.07611 12.319786,-1.68744 23.635485,7.58887 25.239086,19.75154 0.42598,3.23088 0.174799,6.54116 -0.71965,9.67418"
       transform="matrix(1.1214361,0,0,1.2355439,-7.7581003,-228.00271)"
       inkscape:export-xdpi="180"
       inkscape:export-ydpi="180" />
    <path
       sodipodi:type="arc"
       style="fill:#ff0000;fill-opacity:1;stroke:none"
       id="path3759"
       sodipodi:cx="165"
       sodipodi:cy="905.2193"
       sodipodi:rx="18.214285"
       sodipodi:ry="18.214285"
       d="m 183.21428,905.2193 a 18.214285,18.214285 0 1 1 -36.42856,0 18.214285,18.214285 0 1 1 36.42856,0 z"
       transform="matrix(0.54901963,0,0,0.54901963,66.197476,416.45042)"
       inkscape:export-xdpi="180"
       inkscape:export-ydpi="180" />
  </g>
</svg>
