<?xml version="1.0" encoding="UTF-8" standalone="no"?>
<!-- Created with Inkscape (http://www.inkscape.org/) -->

<svg
   xmlns:dc="http://purl.org/dc/elements/1.1/"
   xmlns:cc="http://creativecommons.org/ns#"
   xmlns:rdf="http://www.w3.org/1999/02/22-rdf-syntax-ns#"
   xmlns:svg="http://www.w3.org/2000/svg"
   xmlns="http://www.w3.org/2000/svg"
   xmlns:sodipodi="http://sodipodi.sourceforge.net/DTD/sodipodi-0.dtd"
   xmlns:inkscape="http://www.inkscape.org/namespaces/inkscape"
   width="4096"
   height="1024"
   id="svg2"
   version="1.1"
   inkscape:version="0.48.4 r9939"
   sodipodi:docname="gamesprites.svg">
  <defs
     id="defs4" />
  <sodipodi:namedview
     id="base"
     pagecolor="#ffffff"
     bordercolor="#666666"
     borderopacity="1.0"
     inkscape:pageopacity="0.0"
     inkscape:pageshadow="2"
     inkscape:zoom="0.177717"
     inkscape:cx="2282.119"
     inkscape:cy="98.963514"
     inkscape:document-units="px"
     inkscape:current-layer="layer1"
     showgrid="false"
     showguides="true"
     inkscape:guide-bbox="true"
     inkscape:snap-global="false"
     inkscape:window-width="1366"
     inkscape:window-height="705"
     inkscape:window-x="-8"
     inkscape:window-y="-8"
     inkscape:window-maximized="1">
    <sodipodi:guide
       orientation="1,0"
       position="1024,0"
       id="guide2985" />
    <sodipodi:guide
       orientation="1,0"
       position="2048,0"
       id="guide2987" />
    <sodipodi:guide
       orientation="1,0"
       position="3074,0"
       id="guide2989" />
    <sodipodi:guide
       orientation="0,1"
       position="0,1024"
       id="guide2994" />
    <sodipodi:guide
       orientation="0,1"
       position="0,0"
       id="guide2996" />
    <sodipodi:guide
       orientation="1,0"
       position="0,0"
       id="guide2998" />
    <sodipodi:guide
       orientation="1,0"
       position="4096,0"
       id="guide3000" />
    <sodipodi:guide
       orientation="1,0"
       position="2560,0"
       id="guide3823" />
    <sodipodi:guide
       orientation="0,1"
       position="0,512"
       id="guide3825" />
    <sodipodi:guide
       orientation="1,0"
       position="3585,0"
       id="guide3827" />
    <sodipodi:guide
       orientation="1,0"
       position="1536,0"
       id="guide3829" />
    <sodipodi:guide
       orientation="1,0"
       position="512,0"
       id="guide3831" />
  </sodipodi:namedview>
  <metadata
     id="metadata7">
    <rdf:RDF>
      <cc:Work
         rdf:about="">
        <dc:format>image/svg+xml</dc:format>
        <dc:type
           rdf:resource="http://purl.org/dc/dcmitype/StillImage" />
        <dc:title></dc:title>
      </cc:Work>
    </rdf:RDF>
  </metadata>
  <g
     inkscape:label="Layer 1"
     inkscape:groupmode="layer"
     id="layer1"
     transform="translate(0,-28.362183)">
    <path
       sodipodi:type="arc"
       style="fill:#00ff00;fill-opacity:1;stroke:none"
       id="path3004"
       sodipodi:cx="583.86816"
       sodipodi:cy="708.8324"
       sodipodi:rx="337.39096"
       sodipodi:ry="133.34013"
       d="m 921.25912,708.8324 a 337.39096,133.34013 0 1 1 -674.78192,0 337.39096,133.34013 0 1 1 674.78192,0 z"
       transform="matrix(1.4953982,0,0,2.1895254,-367.81864,-844.85202)" />
    <path
       style="fill:#ceffce;fill-opacity:1;stroke:none"
       d="M 505.625 24.125 C 344.244 24.125 213.40625 212.25526 213.40625 444.34375 C 213.40625 533.14899 232.59034 615.51568 265.28125 683.375 C 334.34983 746.41859 421.28078 784 515.71875 784 C 594.63995 784 668.29623 757.76002 730.6875 712.34375 C 772.6123 639.60197 797.84375 546.20699 797.84375 444.34375 C 797.84375 212.25526 667.006 24.125 505.625 24.125 z "
       transform="translate(0,28.362183)"
       id="path3006" />
    <path
       sodipodi:type="arc"
       style="fill:#d77517;fill-opacity:1;stroke:none"
       id="path3008"
       sodipodi:cx="1536"
       sodipodi:cy="512"
       sodipodi:rx="512"
       sodipodi:ry="512"
       d="m 2048,512 a 512,512 0 1 1 -1024,0 512,512 0 1 1 1024,0 z"
       transform="translate(0,28.362183)"
       inkscape:export-filename="C:\Users\nwint_000\Documents\GitHub\AsteroidImpact\raw_data\path3811.png"
       inkscape:export-xdpi="180"
       inkscape:export-ydpi="180" />
    <path
       style="fill:#1775d7;stroke:#000000;stroke-width:1px;stroke-linecap:butt;stroke-linejoin:miter;stroke-opacity:1;fill-opacity:1"
       d="M 2152.8438,91.059132 C 2430.7095,104.31861 2410.391,77.359464 2574.2975,0 2739.9533,81.48046 2698.4995,86.08492 2948.2857,82.96296 3318.5197,763.88971 2766.6766,934.1114 2560,1024 2332.3026,884.11005 1840.0089,844.73776 2152.8438,91.059132 z"
       id="path3010"
       inkscape:connector-curvature="0"
       transform="translate(0,28.362183)"
       sodipodi:nodetypes="ccccc" />
    <path
       style="fill:#d8d817;fill-opacity:1;stroke:#000000;stroke-width:1px;stroke-linecap:butt;stroke-linejoin:miter;stroke-opacity:1"
       d="m 3191.4286,1312.3622 393.5714,-184 377.8571,172.5714 2.8571,642.8571 L 3585,2152.3622 3191.4286,1906.6479 z"
       id="path3014"
       inkscape:connector-curvature="0"
       sodipodi:nodetypes="ccccccc" />
    <path
       style="fill:#fcfb80;fill-opacity:1;stroke:none"
       d="m 3197.1428,1320.9336 c 17.1429,-11.4286 186.4287,118.5714 186.4287,118.5714 l 368.5801,-4.2857 204.9913,-131.4285 2.8571,640 -180,85.7142 -394.2857,0 -191.4286,-117.1428 z"
       id="path3012"
       inkscape:connector-curvature="0"
       sodipodi:nodetypes="ccccccccc" />
    <path
       sodipodi:type="arc"
       style="fill:#cccccc;stroke:none;stroke-width:4;stroke-miterlimit:4;stroke-opacity:1;stroke-dasharray:none;fill-opacity:1"
       id="path3835"
       sodipodi:cx="1536"
       sodipodi:cy="512"
       sodipodi:rx="423.42856"
       sodipodi:ry="423.42856"
       d="m 1959.4286,512 a 423.42856,423.42856 0 1 1 -846.8572,0 423.42856,423.42856 0 1 1 846.8572,0 z"
       transform="translate(0,28.362183)"
       inkscape:export-filename="C:\Users\nwint_000\Documents\GitHub\AsteroidImpact\raw_data\path3811.png"
       inkscape:export-xdpi="180"
       inkscape:export-ydpi="180" />
    <path
       style="fill:#000000;stroke:#000000;stroke-width:1px;stroke-linecap:butt;stroke-linejoin:miter;stroke-opacity:1"
       d="M 1478.0254,565.7125 1480,161.14286 l 97.3176,0.17472 -1.6688,358.46223 162.324,168.52774 -57.0555,57.36126 z"
       id="path3019"
       inkscape:connector-curvature="0"
       transform="translate(0,28.362183)"
       sodipodi:nodetypes="ccccccc"
       inkscape:export-filename="C:\Users\nwint_000\Documents\GitHub\AsteroidImpact\raw_data\path3811.png"
       inkscape:export-xdpi="180"
       inkscape:export-ydpi="180" />
    <path
       style="fill:#b6c8e3;fill-opacity:1"
       d="m 2173.8237,160.72057 c 183.8023,32.38822 269.8416,-22.86208 401.5751,-92.782928 181.8797,115.864528 214.8163,91.091698 360.3916,94.516078 61.5773,177.74933 284.693,567.06394 -371.0428,807.48825 -449.28,-162.60848 -561.4837,-361.4644 -390.9239,-809.2214 z"
       id="path3814"
       inkscape:connector-curvature="0"
       transform="translate(0,28.362183)"
       sodipodi:nodetypes="ccccc" />
    <path
       id="path3031"
       style="fill:#ebe943;fill-opacity:1;stroke:none"
       d="m 3517.1429,1198.0765 c 8.8995,9.8089 0.4783,27.6327 -4.2349,33.7468 -20.7755,26.9504 -103.9587,147.1359 -130.0509,149.1103 -19.1552,1.4495 -46.2465,-9.1325 -67.9767,-23.9138 -17.1281,-11.6508 -33.2282,-25.4241 -34.8804,-38.9433 -3.1048,-25.4057 190.3353,-115.0719 202.8854,-119.6752 17.9819,-6.5958 32.0425,-2.7662 34.2575,-0.3248 z m 120.2018,-4.81 112.8769,197.2483 c 4.8325,6.5151 10.523,11.0339 21.8334,3.0349 38.7476,-27.3159 107.6425,-58.5639 138.4091,-79.4039 2.6165,-4.9331 -1.3082,-12.8274 -9.9351,-20.1364 -43.7091,-37.0318 -208.1255,-86.5442 -254.0492,-105.3437 -7.5476,-0.9211 -8.9507,-4.4567 -9.1351,4.6008 z m -192.7192,191.2846 130.9647,-216.6359 c 8.5644,-9.3923 9.4098,-6.2623 15.8208,-0.3684 l 126.8823,221.3402 c 13.4292,23.671 8.559,25.5993 -16.9054,28.8843 l -253.5282,5.2338 c -26.1308,-14.8164 -19.9049,-16.5902 -3.2342,-38.454 z"
       inkscape:connector-curvature="0"
       sodipodi:nodetypes="sssssssccccsccccccccc" />
    <path
       id="path3033"
       style="fill:#ebe943;fill-opacity:1;stroke:none"
       d="m 3225.219,1354.4318 2.3075,552.4489 128.9478,77.1131 0.3342,-531.0029 z m 571.0326,97.6976 2.6839,520.2923 135.7019,-57.8064 6.0609,-560.5548 z m -380.4532,24.0529 316.9326,-2.5823 11.7454,512.8746 -322.6048,0.3466 z"
       inkscape:connector-curvature="0"
       sodipodi:nodetypes="ccccccccccccccc" />
    <path
       style="fill:#f4f38a;fill-opacity:1;stroke:none"
       d="M 3454.3524,2056.3731 3585,2125.566 l 152.3931,-76.5091 z"
       id="path3035"
       inkscape:connector-curvature="0"
       sodipodi:nodetypes="cccc" />
    <path
       sodipodi:type="arc"
       style="fill:#75f175;fill-opacity:1;stroke:none"
       id="path3807"
       sodipodi:cx="537.40112"
       sodipodi:cy="640.14203"
       sodipodi:rx="133.34013"
       sodipodi:ry="44.446712"
       d="m 670.74126,640.14203 a 133.34013,44.446712 0 1 1 -266.68027,0 133.34013,44.446712 0 1 1 266.68027,0 z"
       transform="matrix(1.2424242,0,0,1.5,-158.56333,-273.52608)" />
    <path
       sodipodi:type="arc"
       style="fill:#18e418;fill-opacity:1;stroke:none"
       id="path3811"
       sodipodi:cx="525.2793"
       sodipodi:cy="464.37549"
       sodipodi:rx="84.852814"
       sodipodi:ry="94.954338"
       d="m 610.13211,464.37549 a 84.852814,94.954338 0 1 1 -169.70563,0 84.852814,94.954338 0 1 1 169.70563,0 z"
       transform="translate(-16.162441,117.25561)" />
    <g
       transform="matrix(23.493423,0,0,23.493423,-54967.053,-9280.2314)"
       style="font-size:40px;font-style:normal;font-variant:normal;font-weight:normal;font-stretch:normal;line-height:125%;letter-spacing:0px;word-spacing:0px;fill:#000000;fill-opacity:1;stroke:none;font-family:Impact;-inkscape-font-specification:Impact"
       id="text3816">
      <path
         d="m 2457.5195,412.07758 -6.9922,0 0,-1.40625 c 0,-1.1979 -0.068,-1.95636 -0.205,-2.27539 -0.1368,-0.31899 -0.4786,-0.4785 -1.0254,-0.47852 -0.4427,2e-5 -0.7748,0.14651 -0.9961,0.43945 -0.2214,0.29299 -0.3321,0.73245 -0.332,1.31836 -1e-4,0.79429 0.055,1.37697 0.166,1.74805 0.1106,0.37111 0.4427,0.77801 0.9961,1.2207 0.5533,0.44273 1.6894,1.08726 3.4082,1.9336 2.2916,1.1198 3.7955,2.17449 4.5117,3.16406 0.7161,0.98959 1.0742,2.42839 1.0742,4.3164 0,2.10938 -0.2735,3.70118 -0.8203,4.7754 -0.5469,1.07422 -1.4616,1.90104 -2.7442,2.48046 -1.2825,0.57943 -2.8287,0.86914 -4.6386,0.86914 -2.0052,0 -3.7207,-0.3125 -5.1465,-0.9375 -1.4258,-0.62499 -2.4056,-1.47135 -2.9395,-2.53906 -0.5338,-1.0677 -0.8007,-2.68228 -0.8007,-4.84375 l 0,-1.25 6.9921,0 0,1.64063 c 0,1.39323 0.088,2.29818 0.2637,2.71484 0.1758,0.41667 0.5241,0.625 1.0449,0.625 0.5599,0 0.9505,-0.13997 1.1719,-0.41992 0.2214,-0.27994 0.332,-0.86914 0.332,-1.76758 0,-1.23697 -0.1432,-2.01171 -0.4296,-2.32422 -0.2995,-0.31249 -1.8295,-1.23697 -4.5899,-2.77344 -2.3177,-1.30207 -3.7305,-2.48371 -4.2383,-3.54492 -0.5078,-1.06118 -0.7617,-2.32094 -0.7617,-3.77929 0,-2.0703 0.2734,-3.59699 0.8203,-4.58008 0.5469,-0.98305 1.4746,-1.74151 2.7832,-2.27539 1.3086,-0.53383 2.8288,-0.80076 4.5606,-0.80078 1.7187,2e-5 3.1803,0.21812 4.3847,0.65429 1.2045,0.43623 2.1289,1.0124 2.7735,1.72852 0.6445,0.71617 1.0351,1.38023 1.1719,1.99219 0.1367,0.612 0.205,1.56903 0.205,2.87109 z"
         id="path3821"
         inkscape:connector-curvature="0" />
    </g>
    <path
       sodipodi:type="arc"
       style="fill:none;fill-opacity:1;stroke:#000000"
       id="path3833"
       sodipodi:cx="2560"
       sodipodi:cy="512"
       sodipodi:rx="514"
       sodipodi:ry="514"
       d="m 3074,512 a 514,514 0 1 1 -1028,0 514,514 0 1 1 1028,0 z"
       transform="translate(0,28.362183)" />
    <path
       sodipodi:type="arc"
       style="fill:none;stroke:#000000;stroke-opacity:1"
       id="path3837"
       sodipodi:cx="3585"
       sodipodi:cy="512"
       sodipodi:rx="512"
       sodipodi:ry="512"
       d="m 4097,512 a 512,512 0 1 1 -1024,0 512,512 0 1 1 1024,0 z"
       transform="translate(0,1128.3622)" />
    <path
       sodipodi:type="arc"
       style="fill:#f5f54e;fill-opacity:1;stroke:none"
       id="path3841"
       sodipodi:cx="3585"
       sodipodi:cy="512"
       sodipodi:rx="512"
       sodipodi:ry="512"
       d="m 4097,512 a 512,512 0 1 1 -1024,0 512,512 0 1 1 1024,0 z"
       transform="translate(0,28.362183)" />
    <path
       style="fill:#298c25;stroke:#000000;stroke-width:1px;stroke-linecap:butt;stroke-linejoin:miter;stroke-opacity:1;fill-opacity:1"
       d="m 3188.5714,512 128.5715,-259.42857 540,-5.71429 L 4014.2857,512 3585,955.42857 z"
       id="path3843"
       inkscape:connector-curvature="0"
       transform="translate(0,28.362183)" />
    <path
       style="fill:#1fac1a;fill-opacity:1;"
       d="M 3204.2857,512.57143 3327.1429,264 l 100,248.57143 z"
       id="path3845"
       inkscape:connector-curvature="0"
       transform="translate(0,28.362183)" />
    <path
       style="fill:#2cd426;fill-opacity:1"
       d="m 3325.7143,261.14286 522.8571,-4.28572 -114.4695,254.6252 -308.3876,-0.33948 z"
       id="path3851"
       inkscape:connector-curvature="0"
       transform="translate(0,28.362183)"
       sodipodi:nodetypes="ccccc" />
    <path
       style="fill:#25e91e;fill-opacity:1"
       d="m 3427.388,510.30602 159.7549,-239.16316 148.0952,239.50265 z"
       id="path3847"
       inkscape:connector-curvature="0"
       transform="translate(0,28.362183)"
       sodipodi:nodetypes="cccc" />
    <path
       style="fill:#21aa1c;fill-opacity:1"
       d="M 3734.2356,511.3957 3848.5714,259.71428 4005.7143,514 z"
       id="path3849"
       inkscape:connector-curvature="0"
       transform="translate(0,28.362183)"
       sodipodi:nodetypes="cccc" />
    <path
       style="fill:#1ec21a;fill-opacity:1;"
       d="m 3201.4286,509.71429 381.4285,432.85714 -155.7142,-430 z"
       id="path3853"
       inkscape:connector-curvature="0"
       transform="translate(0,28.362183)" />
    <path
       style="fill:#1fac1a;fill-opacity:1"
       d="m 3426.046,511.31617 308.1463,0.28239 -148.478,428.11573 z"
       id="path3855"
       inkscape:connector-curvature="0"
       transform="translate(0,28.362183)"
       sodipodi:nodetypes="cccc" />
    <path
       style="fill:#268523;fill-opacity:1"
       d="m 3735.343,511.14286 268.9427,1.42857 -415.7143,425.71428 z"
       id="path3857"
       inkscape:connector-curvature="0"
       transform="translate(0,28.362183)"
       sodipodi:nodetypes="cccc" />
  </g>
</svg>
